<svg xmlns="http://www.w3.org/2000/svg" viewBox="0 0 583.03 399.59"><defs><style>.cls-1{fill:#8c6239;}.cls-2{fill:none;stroke:#8c6239;stroke-miterlimit:10;stroke-width:10px;}.cls-3{fill:#31af31;}.cls-4{fill:#5c5962;}</style></defs><g id="Layer_2" data-name="Layer 2"><g id="Layer_1-2" data-name="Layer 1"><path class="cls-1" d="M254,290.88a188.85,188.85,0,0,1-35.41-1.62,125.88,125.88,0,0,1-34.83-10.13,89.16,89.16,0,0,1-30.16-22.45,73.38,73.38,0,0,1-10.69-16.52,54.93,54.93,0,0,1-5.18-20.33h20.06a29.33,29.33,0,0,0,.42,6.42,42.62,42.62,0,0,0,1.78,6.82,55.68,55.68,0,0,0,6.91,13.13,73.8,73.8,0,0,0,23.23,20.69,113.73,113.73,0,0,0,30.49,11.89A179.57,179.57,0,0,0,254,283.33Z"/><line class="cls-2" x1="54.67" y1="145.12" x2="84.84" y2="200.56"/><line class="cls-2" x1="146.19" y1="200.56" x2="176.63" y2="145.12"/><line class="cls-2" x1="176.63" y1="145.12" x2="209.2" y2="200.56"/><line class="cls-2" x1="146.19" y1="200.56" x2="116.3" y2="145.12"/><line class="cls-2" x1="84.84" y1="200.56" x2="116.3" y2="145.12"/><line class="cls-2" x1="23.49" y1="200.56" x2="54.67" y2="145.12"/><circle class="cls-3" cx="146.19" cy="200.56" r="23.49"/><circle class="cls-3" cx="209.52" cy="200.56" r="23.49" transform="translate(-58.76 90.34) rotate(-21.41)"/><circle class="cls-3" cx="116.3" cy="145.12" r="23.49"/><circle class="cls-3" cx="177.93" cy="145.12" r="23.49"/><circle class="cls-3" cx="84.84" cy="200.56" r="23.49"/><circle class="cls-3" cx="54.67" cy="145.12" r="23.49"/><circle class="cls-3" cx="23.49" cy="200.56" r="23.49"/><line class="cls-2" x1="112.41" y1="78.94" x2="143.58" y2="23.49"/><line class="cls-2" x1="143.58" y1="23.49" x2="173.76" y2="78.94"/><line class="cls-2" x1="173.76" y1="78.94" x2="205.22" y2="23.49"/><line class="cls-2" x1="205.22" y1="23.49" x2="235.11" y2="78.94"/><line class="cls-2" x1="235.11" y1="78.94" x2="266.85" y2="23.49"/><line class="cls-2" x1="266.85" y1="23.49" x2="298.44" y2="78.94"/><line class="cls-2" x1="298.44" y1="78.94" x2="329.3" y2="23.49"/><line class="cls-2" x1="329.3" y1="23.49" x2="362.49" y2="78.94"/><circle class="cls-3" cx="235.11" cy="78.94" r="23.49"/><circle class="cls-3" cx="298.44" cy="78.94" r="23.49"/><circle class="cls-3" cx="205.22" cy="23.49" r="23.49"/><circle class="cls-3" cx="266.85" cy="23.49" r="23.49"/><circle class="cls-3" cx="173.76" cy="78.94" r="23.49"/><circle class="cls-3" cx="143.58" cy="23.49" r="23.49"/><circle class="cls-3" cx="112.41" cy="78.94" r="23.49"/><circle class="cls-3" cx="362.49" cy="78.94" r="23.49"/><circle class="cls-3" cx="329.3" cy="23.49" r="23.49"/><line class="cls-2" x1="309.46" y1="196.33" x2="340.64" y2="140.89"/><line class="cls-2" x1="340.64" y1="140.89" x2="370.81" y2="196.33"/><line class="cls-2" x1="370.81" y1="196.33" x2="402.27" y2="140.89"/><line class="cls-2" x1="402.27" y1="140.89" x2="432.16" y2="196.33"/><line class="cls-2" x1="432.16" y1="196.33" x2="463.9" y2="140.89"/><line class="cls-2" x1="463.9" y1="140.89" x2="495.49" y2="196.33"/><line class="cls-2" x1="495.49" y1="196.33" x2="526.35" y2="140.89"/><line class="cls-2" x1="526.35" y1="140.89" x2="559.54" y2="196.33"/><circle class="cls-3" cx="432.16" cy="196.33" r="23.49"/><circle class="cls-3" cx="495.49" cy="196.33" r="23.49"/><circle class="cls-3" cx="402.27" cy="140.89" r="23.49"/><circle class="cls-3" cx="463.9" cy="140.89" r="23.49"/><circle class="cls-3" cx="370.81" cy="196.33" r="23.49"/><circle class="cls-3" cx="340.64" cy="140.89" r="23.49"/><circle class="cls-3" cx="309.46" cy="196.33" r="23.49"/><circle class="cls-3" cx="559.54" cy="196.33" r="23.49"/><circle class="cls-3" cx="526.35" cy="140.89" r="23.49"/><path class="cls-4" d="M190.1,399.59H142.9q0-2.29.16-16.32t.16-40.78q0-10.33,0-26.85t-.28-32.48h47.2v7.72H154.62q-.17,16.1-.21,28.75t0,22.2q0,20.28.16,32t.17,18h35.4Z"/><path class="cls-4" d="M259.28,399.59H212.07q0-2.29.17-16.32t.16-40.78q0-10.33,0-26.85t-.29-32.48h47.21v7.72H223.79q-.16,16.1-.2,28.75t0,22.2q0,20.28.16,32t.16,18h35.41Z"/><path class="cls-4" d="M359.86,399.59h-47.2v-7.72h35.4q0-6.93.17-19.95t.16-30.09q0-8.62,0-23.09t-.2-27.86H312.66v-7.72h47.2q-.24,15.9-.28,32.7t0,26.63q0,18.31.16,36.56T359.86,399.59Z"/><path class="cls-4" d="M429,399.59h-47.2v-7.72h35.4q0-6.93.16-19.95t.17-30.09q0-8.62-.05-23.09t-.2-27.86H381.84v-7.72H429q-.24,15.9-.28,32.7t0,26.63q0,18.31.16,36.56T429,399.59Z"/></g></g></svg>