<svg xmlns="http://www.w3.org/2000/svg" viewBox="0 0 286.14 116.43"><defs><style>.cls-1{fill:#e6e1e8;}</style></defs><g id="Layer_2" data-name="Layer 2"><g id="Layer_1-2" data-name="Layer 1"><path class="cls-1" d="M47.2,116.43H0q0-2.3.16-16.32T.33,59.33q0-10.33,0-26.85T0,0H47.2V7.72H11.72q-.17,16.1-.2,28.74t0,22.21q0,20.28.16,32t.16,18H47.2Z"/><path class="cls-1" d="M116.38,116.43H69.18q0-2.3.16-16.32t.16-40.78q0-10.33,0-26.85T69.18,0h47.2V7.72H80.9q-.16,16.1-.21,28.74t0,22.21q0,20.28.16,32t.17,18h35.4Z"/><path class="cls-1" d="M217,116.43h-47.2v-7.72h35.4q0-6.93.16-19.95t.16-30.09q0-8.62,0-23.09t-.2-27.86H169.77V0H217q-.25,15.9-.29,32.7t0,26.63q0,18.32.16,36.56T217,116.43Z"/><path class="cls-1" d="M286.14,116.43h-47.2v-7.72h35.4q0-6.93.17-19.95t.16-30.09q0-8.62,0-23.09t-.21-27.86H238.94V0h47.2q-.24,15.9-.28,32.7t0,26.63q0,18.32.16,36.56T286.14,116.43Z"/><path class="cls-1" d="M129.38,90.26c0-8.15,5.51-13.88,13.22-13.88s13,5.73,13,13.88c0,7.93-5.06,13.87-13.21,13.87C134.67,104.13,129.38,98.19,129.38,90.26Z"/></g></g></svg>